<?xml version="1.0" encoding="utf-8"?>
<!-- Generator: Adobe Illustrator 19.0.0, SVG Export Plug-In . SVG Version: 6.00 Build 0)  -->
<svg version="1.1" id="Layer_1" xmlns="http://www.w3.org/2000/svg" xmlns:xlink="http://www.w3.org/1999/xlink" x="0px" y="0px"
	 viewBox="0 0 500 500" style="enable-background:new 0 0 500 500;" xml:space="preserve">
<style type="text/css">
	.st0{fill:url(#XMLID_27_);stroke:#6D6E71;stroke-width:8;stroke-miterlimit:10;}
	.st1{opacity:0.65;}
	.st2{fill:#808285;}
	.st3{fill:#FFFFFF;}
	.st4{fill:#136F38;}
</style>
<radialGradient id="XMLID_27_" cx="250" cy="250" r="217.0142" gradientTransform="matrix(1 0 0 2 0 -250)" gradientUnits="userSpaceOnUse">
	<stop  offset="0" style="stop-color:#C9EBFC"/>
	<stop  offset="1" style="stop-color:#008CC5"/>
</radialGradient>
<path id="XMLID_1_" class="st0" d="M333.9,468.5H166.1c-72.7,0-131.6-58.9-131.6-131.6V163.1c0-72.7,58.9-131.6,131.6-131.6h167.8
	c72.7,0,131.6,58.9,131.6,131.6v173.9C465.5,409.6,406.6,468.5,333.9,468.5z"/>
<g id="XMLID_14_" class="st1">
	<path id="XMLID_25_" class="st2" d="M200.9,370.7l8.1-12.4l-19.9,6.2l4.1-4.3c0,0-18.4,16.9-31.9,10.5c0,0-8.7-4.9,3.3-13.9
		c0,0-12.9,10.4-26.5,5.3c0,0-9.1-3.4-6.1-12.7c0,0,2.1-4.3,8-7l22.4-9.7c0,0-24.2,8.9-33.3,8.7c0,0-14.3,1.6-15.5-10.3
		c0,0,0.3-9,17.2-12.3c0,0-22.6,1.9-29.9-12.9c0,0-5.3-12.3,7.3-13.3c0,0,12.1-0.2,15.8-1.2c0,0-21.9-5.7-23.2-25.5
		c0,0-0.3-8.2,6.5-7.3c0,0,14.8,3,14.9,3c0.1,0,0.1,0,0.1,0s-28.8-14.4-21-36.8c0,0,2.4-9.7,17.9,2.2c0,0-19.5-18.9-6.9-34.6
		c0,0,3.8-5.1,17.4,6.3c0,0-25-32.4-8.7-48c0,0,3.6-3.4,8.4,5.8c0,0,7.3,14.5,20.5,23.5c0,0-31-36.1-14.8-59.9c0,0,3.7-5.6,7.8-0.6
		c0,0,9.6,18,12.4,23.1c0,0-22.2-44.3-6.3-61.3c0,0,6.3-6.1,10.4,9.6l6.7,20.7c0,0-13.4-54.3,0.7-59c0,0,7.1-1.6,11,11.7
		c0,0,33.4,97,50.5,133.7c0,0,29.3,84.7,48.5,86.6c0,0,44.5-45.5,55.8-16.5l8.1,7.3l-7.3,0.4c0,0-6.8,3-8.6,17.6
		c0,0,16.5-11.5,8.9,1.3c0,0,27.5-17.9,15.5-5c0,0,38.1-22.3,13.4,1.9c0,0,31-21.3,24.3-7.3c0,0-12.4,18.7-28.8,24
		c0,0-11.1,3.5-20.3,4.3c0,0-11.8,0-14.1,8.1c0,0-4.7,44.5-70,65c0,0-5.8,1.9-6.5,2.2c0,0,2.8,3.4,1.8,5.2c0,0-1.3,3-3.6,4.1
		c0,0-0.1,4.5-2.8,5.6c0,0-3.6,1.4-5.9,0.6l-0.9-1.2l1.3,0.1c0,0,7.3,0.5,6.6-5.8c0,0-0.2-5.3-3.3-6.9c0,0-1.8,2.3-5.3,4.6
		c0,0-17.3,57-16.8,34.8c0,0-13.5,29.5-11.1,6.2c0,0-16.7,28.9-14.3,11.1c0,0-17.3,20.3-7.3-6.4c0,0-15,21.4-16.7,7.1
		c0,0-18,9.2-8.6-6.6c0,0-25.4,19.2-15-3.4c0,0-13.7,0.9-7.5-11.1c0,0-14.3-3.8-2.8-12.6c0,0-16.3-3.8,1.3-12
		c0,0-16.3-9.4,14.1-14.8c0,0-10.9-7.7,27.8-13.7L200.9,370.7z"/>
	<g id="XMLID_15_">
		<path id="XMLID_24_" class="st2" d="M321,291.8c0,0,0.1-0.1,0.2-0.2c0.1-0.1,0.3-0.3,0.5-0.5c0.5-0.4,1.2-1,2.1-1.8
			c0.9-0.8,2.1-1.7,3.4-2.7c1.3-1,2.9-2.1,4.6-3.3c1.7-1.2,3.6-2.4,5.6-3.6c2-1.2,4.2-2.4,6.5-3.5c2.3-1.1,4.7-2.3,7.3-3.2
			c2.5-1,5.1-1.9,7.8-2.7c2.6-0.8,5.3-1.4,8-1.9c2.7-0.5,5.3-0.9,7.9-1.1c2.6-0.2,5.1-0.3,7.5-0.2c2.4,0,4.6,0.2,6.7,0.5
			c1,0.1,2,0.3,3,0.4c0.5,0.1,0.9,0.2,1.4,0.2c0.4,0.1,0.9,0.2,1.3,0.2c0.8,0.2,1.6,0.3,2.3,0.5c0.7,0.2,1.4,0.3,2,0.5
			c0.6,0.2,1.1,0.3,1.6,0.4c0.5,0.1,0.8,0.3,1.1,0.4c0.6,0.2,1,0.3,1,0.3s-0.3-0.1-0.9-0.3c-0.3-0.1-0.7-0.2-1.1-0.4
			c-0.5-0.1-1-0.3-1.6-0.5c-0.6-0.2-1.2-0.4-1.9-0.6c-0.7-0.2-1.5-0.4-2.3-0.6c-0.4-0.1-0.8-0.2-1.3-0.3c-0.4-0.1-0.9-0.2-1.4-0.3
			c-0.9-0.2-1.9-0.4-3-0.5c-2.1-0.3-4.3-0.6-6.7-0.7c-2.4-0.1-4.9-0.2-7.6-0.1c-2.6,0.1-5.3,0.4-8.1,0.8c-2.7,0.4-5.5,1-8.2,1.6
			c-2.7,0.7-5.4,1.5-8,2.4c-2.6,0.9-5.1,1.9-7.6,3c-2.4,1.1-4.7,2.2-6.8,3.4c-2.1,1.1-4.1,2.3-5.9,3.4c-1.8,1.1-3.4,2.2-4.8,3.2
			c-1.4,1-2.6,1.9-3.6,2.6c-1,0.8-1.7,1.4-2.3,1.8c-0.3,0.2-0.5,0.4-0.6,0.5c-0.1,0.1-0.2,0.2-0.2,0.2L321,291.8z"/>
		<path id="XMLID_23_" class="st2" d="M352.9,270.4c0,0,8.1-0.5,4.7-13.7C357.6,256.7,345.3,262,352.9,270.4z"/>
		<path id="XMLID_22_" class="st2" d="M366.2,267.3c0,0,6.4,1.9,7.5-9.2C373.7,258.1,362.7,258.6,366.2,267.3z"/>
		<path id="XMLID_21_" class="st2" d="M378.3,266.4c0,0,5.2,1.6,6.1-7.4C384.4,259,375.5,259.4,378.3,266.4z"/>
		<path id="XMLID_20_" class="st2" d="M389.1,267.2c0,0,5.2,1.6,6.1-7.4C395.2,259.8,386.3,260.2,389.1,267.2z"/>
		<path id="XMLID_19_" class="st2" d="M354.2,270.8c0,0,8.2-0.5,6.4,13C360.6,283.8,347.7,280.1,354.2,270.8z"/>
		<path id="XMLID_18_" class="st2" d="M367.7,267.6c0,0,6.1-2.7,8.6,8.2C376.3,275.8,365.3,276.6,367.7,267.6z"/>
		<path id="XMLID_17_" class="st2" d="M379.4,266.7c0,0,5-2.2,7,6.6C386.4,273.3,377.5,274,379.4,266.7z"/>
		<path id="XMLID_16_" class="st2" d="M389.3,267.8c0,0,5-2.2,7,6.6C396.3,274.4,387.4,275.1,389.3,267.8z"/>
	</g>
</g>
<g id="XMLID_2_">
	<path id="XMLID_13_" class="st3" d="M205.8,368.7l8.1-12.4l-19.9,6.2l4.1-4.3c0,0-18.4,16.9-31.9,10.5c0,0-8.7-4.9,3.3-13.9
		c0,0-12.9,10.4-26.5,5.3c0,0-9.1-3.4-6.1-12.7c0,0,2.1-4.3,8-7l22.4-9.7c0,0-24.2,8.9-33.3,8.7c0,0-14.3,1.6-15.5-10.3
		c0,0,0.3-9,17.2-12.3c0,0-22.6,1.9-29.9-12.9c0,0-5.3-12.3,7.3-13.3c0,0,12.1-0.2,15.8-1.2c0,0-21.9-5.7-23.2-25.5
		c0,0-0.3-8.2,6.5-7.3c0,0,14.8,3,14.9,3c0.1,0,0.1,0,0.1,0s-28.8-14.4-21-36.8c0,0,2.4-9.7,17.9,2.2c0,0-19.5-18.9-6.9-34.6
		c0,0,3.8-5.1,17.4,6.3c0,0-25-32.4-8.7-48c0,0,3.6-3.4,8.4,5.8c0,0,7.3,14.5,20.5,23.5c0,0-31-36.1-14.8-59.9c0,0,3.7-5.6,7.8-0.6
		c0,0,9.6,18,12.4,23.1c0,0-22.2-44.3-6.3-61.3c0,0,6.3-6.1,10.4,9.6l6.7,20.7c0,0-13.4-54.3,0.7-59c0,0,7.1-1.6,11,11.7
		c0,0,33.4,97,50.5,133.7c0,0,29.3,84.7,48.5,86.6c0,0,44.5-45.5,55.8-16.5l8.1,7.3l-7.3,0.4c0,0-6.8,3-8.6,17.6
		c0,0,16.5-11.5,8.9,1.3c0,0,27.5-17.9,15.5-5c0,0,38.1-22.3,13.4,1.9c0,0,31-21.3,24.3-7.3c0,0-12.4,18.7-28.8,24
		c0,0-11.1,3.5-20.3,4.3c0,0-11.8,0-14.1,8.1c0,0-4.7,44.5-70,65c0,0-5.8,1.9-6.5,2.2c0,0,2.8,3.4,1.8,5.2c0,0-1.3,3-3.6,4.1
		c0,0-0.1,4.5-2.8,5.6c0,0-3.6,1.4-5.9,0.6l-0.9-1.2l1.3,0.1c0,0,7.3,0.5,6.6-5.8c0,0-0.2-5.3-3.3-6.9c0,0-1.8,2.3-5.3,4.6
		c0,0-17.3,57-16.8,34.8c0,0-13.5,29.5-11.1,6.2c0,0-16.7,28.9-14.3,11.1c0,0-17.3,20.3-7.3-6.4c0,0-15,21.4-16.7,7.1
		c0,0-18,9.2-8.6-6.6c0,0-25.4,19.2-15-3.4c0,0-13.7,0.9-7.5-11.1c0,0-14.3-3.8-2.8-12.6c0,0-16.3-3.8,1.3-12
		c0,0-16.3-9.4,14.1-14.8c0,0-10.9-7.7,27.8-13.7L205.8,368.7z"/>
	<g id="XMLID_3_">
		<path id="XMLID_12_" class="st4" d="M325.9,289.8c0,0,0.1-0.1,0.2-0.2c0.1-0.1,0.3-0.3,0.5-0.5c0.5-0.4,1.2-1,2.1-1.8
			c0.9-0.8,2.1-1.7,3.4-2.7c1.3-1,2.9-2.1,4.6-3.3c1.7-1.2,3.6-2.4,5.6-3.6c2-1.2,4.2-2.4,6.5-3.5c2.3-1.1,4.7-2.3,7.3-3.2
			c2.5-1,5.1-1.9,7.8-2.7c2.6-0.8,5.3-1.4,8-1.9c2.7-0.5,5.3-0.9,7.9-1.1c2.6-0.2,5.1-0.3,7.5-0.2c2.4,0,4.6,0.2,6.7,0.5
			c1,0.1,2,0.3,3,0.4c0.5,0.1,0.9,0.2,1.4,0.2c0.4,0.1,0.9,0.2,1.3,0.2c0.8,0.2,1.6,0.3,2.3,0.5c0.7,0.2,1.4,0.3,2,0.5
			c0.6,0.2,1.1,0.3,1.6,0.4c0.5,0.1,0.8,0.3,1.1,0.4c0.6,0.2,1,0.3,1,0.3s-0.3-0.1-0.9-0.3c-0.3-0.1-0.7-0.2-1.1-0.4
			c-0.5-0.1-1-0.3-1.6-0.5c-0.6-0.2-1.2-0.4-1.9-0.6c-0.7-0.2-1.5-0.4-2.3-0.6c-0.4-0.1-0.8-0.2-1.3-0.3c-0.4-0.1-0.9-0.2-1.4-0.3
			c-0.9-0.2-1.9-0.4-3-0.5c-2.1-0.3-4.3-0.6-6.7-0.7c-2.4-0.1-4.9-0.2-7.6-0.1c-2.6,0.1-5.3,0.4-8.1,0.8c-2.7,0.4-5.5,1-8.2,1.6
			c-2.7,0.7-5.4,1.5-8,2.4c-2.6,0.9-5.1,1.9-7.6,3c-2.4,1.1-4.7,2.2-6.8,3.4c-2.1,1.1-4.1,2.3-5.9,3.4c-1.8,1.1-3.4,2.2-4.8,3.2
			c-1.4,1-2.6,1.9-3.6,2.6c-1,0.8-1.7,1.4-2.3,1.8c-0.3,0.2-0.5,0.4-0.6,0.5c-0.1,0.1-0.2,0.2-0.2,0.2L325.9,289.8z"/>
		<path id="XMLID_11_" class="st4" d="M357.8,268.4c0,0,8.1-0.5,4.7-13.7C362.5,254.7,350.2,260,357.8,268.4z"/>
		<path id="XMLID_10_" class="st4" d="M371.1,265.3c0,0,6.4,1.9,7.5-9.2C378.6,256.1,367.6,256.6,371.1,265.3z"/>
		<path id="XMLID_9_" class="st4" d="M383.2,264.4c0,0,5.2,1.6,6.1-7.4C389.3,257,380.4,257.4,383.2,264.4z"/>
		<path id="XMLID_8_" class="st4" d="M394,265.2c0,0,5.2,1.6,6.1-7.4C400.1,257.8,391.2,258.2,394,265.2z"/>
		<path id="XMLID_7_" class="st4" d="M359.1,268.8c0,0,8.2-0.5,6.4,13C365.5,281.8,352.6,278.1,359.1,268.8z"/>
		<path id="XMLID_6_" class="st4" d="M372.6,265.6c0,0,6.1-2.7,8.6,8.2C381.2,273.8,370.2,274.6,372.6,265.6z"/>
		<path id="XMLID_5_" class="st4" d="M384.3,264.7c0,0,5-2.2,7,6.6C391.2,271.3,382.4,272,384.3,264.7z"/>
		<path id="XMLID_4_" class="st4" d="M394.2,265.8c0,0,5-2.2,7,6.6C401.2,272.4,392.3,273.1,394.2,265.8z"/>
	</g>
</g>
</svg>
